{
  "accessors": [
    {
      "bufferView": 0,
      "componentType": 5125,
      "count": 15360,
      "type": "SCALAR"
    },
    {
      "bufferView": 1,
      "componentType": 5126,
      "count": 3003,
      "max": [
        0.644948482513428,
        1.76441979408264,
        0.644948422908783
      ],
      "min": [
        -0.644948482513428,
        0.474522829055786,
        -0.644948422908783
      ],
      "type": "VEC3"
    },
    {
      "bufferView": 2,
      "componentType": 5126,
      "count": 3003,
      "type": "VEC3"
    },
    {
      "bufferView": 3,
      "componentType": 5126,
      "count": 3003,
      "type": "VEC4"
    },
    {
      "bufferView": 4,
      "componentType": 5126,
      "count": 3003,
      "type": "VEC2"
    },
    {
      "bufferView": 5,
      "componentType": 5125,
      "count": 162048,
      "type": "SCALAR"
    },
    {
      "bufferView": 6,
      "componentType": 5126,
      "count": 26860,
      "max": [
        1.23060739040375,
        2.37340402603149,
        1.24818444252014
      ],
      "min": [
        -1.23259520530701,
        -0.126842260360718,
        -1.26772439479828
      ],
      "type": "VEC3"
    },
    {
      "bufferView": 7,
      "componentType": 5126,
      "count": 26860,
      "type": "VEC3"
    },
    {
      "bufferView": 8,
      "componentType": 5126,
      "count": 26860,
      "type": "VEC4"
    },
    {
      "bufferView": 9,
      "componentType": 5126,
      "count": 26860,
      "type": "VEC2"
    }
  ],
  "asset": {
    "generator": "Adobe Substance 3D Painter 8.2.0",
    "version": "2.0"
  },
  "bufferViews": [
    {
      "buffer": 0,
      "byteLength": 61440,
      "target": 34963
    },
    {
      "buffer": 0,
      "byteLength": 36036,
      "byteOffset": 61440,
      "target": 34962
    },
    {
      "buffer": 0,
      "byteLength": 36036,
      "byteOffset": 97476,
      "target": 34962
    },
    {
      "buffer": 0,
      "byteLength": 48048,
      "byteOffset": 133512,
      "target": 34962
    },
    {
      "buffer": 0,
      "byteLength": 24024,
      "byteOffset": 181560,
      "target": 34962
    },
    {
      "buffer": 0,
      "byteLength": 648192,
      "byteOffset": 205584,
      "target": 34963
    },
    {
      "buffer": 0,
      "byteLength": 322320,
      "byteOffset": 853776,
      "target": 34962
    },
    {
      "buffer": 0,
      "byteLength": 322320,
      "byteOffset": 1176096,
      "target": 34962
    },
    {
      "buffer": 0,
      "byteLength": 429760,
      "byteOffset": 1498416,
      "target": 34962
    },
    {
      "buffer": 0,
      "byteLength": 214880,
      "byteOffset": 1928176,
      "target": 34962
    }
  ],
  "buffers": [
    {
      "byteLength": 2143056,
      "uri": "Untitled.bin"
    }
  ],
  "images": [
    {
      "uri": "Automotive led lights_baseColor.png"
    },
    {
      "uri": "Automotive led lights_occlusionRoughnessMetallic.png"
    },
    {
      "uri": "Automotive led lights_normal.jpg"
    },
    {
      "uri": "Material.003_baseColor.png"
    },
    {
      "uri": "Material.003_occlusionRoughnessMetallic.png"
    },
    {
      "uri": "Material.003_normal.jpg"
    }
  ],
  "materials": [
    {
      "alphaMode": "OPAQUE",
      "name": "Automotive led lights",
      "normalTexture": {
        "index": 2
      },
      "occlusionTexture": {
        "index": 1
      },
      "pbrMetallicRoughness": {
        "baseColorTexture": {
          "index": 0
        },
        "metallicRoughnessTexture": {
          "index": 1
        }
      }
    },
    {
      "alphaMode": "OPAQUE",
      "name": "Material.003",
      "normalTexture": {
        "index": 5
      },
      "occlusionTexture": {
        "index": 4
      },
      "pbrMetallicRoughness": {
        "baseColorTexture": {
          "index": 3
        },
        "metallicRoughnessTexture": {
          "index": 4
        }
      }
    }
  ],
  "meshes": [
    {
      "name": "Icosphere-0",
      "primitives": [
        {
          "attributes": {
            "NORMAL": 2,
            "POSITION": 1,
            "TANGENT": 3,
            "TEXCOORD_0": 4
          },
          "indices": 0,
          "material": 0,
          "mode": 4
        }
      ]
    },
    {
      "name": "Icosphere-1",
      "primitives": [
        {
          "attributes": {
            "NORMAL": 7,
            "POSITION": 6,
            "TANGENT": 8,
            "TEXCOORD_0": 9
          },
          "indices": 5,
          "material": 1,
          "mode": 4
        }
      ]
    }
  ],
  "nodes": [
    {
      "children": [
        1,
        2
      ],
      "name": "Icosphere",
      "translation": [
        0.0,
        0.0928037166595459,
        0.0
      ]
    },
    {
      "mesh": 0,
      "name": "Icosphere-0"
    },
    {
      "mesh": 1,
      "name": "Icosphere-1"
    }
  ],
  "samplers": [
    {
      "magFilter": 9729,
      "minFilter": 9985,
      "wrapS": 10497,
      "wrapT": 10497
    }
  ],
  "scene": 0,
  "scenes": [
    {
      "name": "Scene",
      "nodes": [
        0
      ]
    }
  ],
  "textures": [
    {
      "sampler": 0,
      "source": 0
    },
    {
      "sampler": 0,
      "source": 1
    },
    {
      "sampler": 0,
      "source": 2
    },
    {
      "sampler": 0,
      "source": 3
    },
    {
      "sampler": 0,
      "source": 4
    },
    {
      "sampler": 0,
      "source": 5
    }
  ]
}